<?xml version="1.0" encoding="UTF-8"?>
<svg version="1.1" xmlns="http://www.w3.org/2000/svg" width="500" height="500">
<path d="M0 0 C3.64516963 2.61783829 7.25010494 5.34602417 10.30078125 8.65234375 C10.30078125 9.31234375 10.30078125 9.97234375 10.30078125 10.65234375 C10.96078125 10.65234375 11.62078125 10.65234375 12.30078125 10.65234375 C24.30078125 26.82362838 24.30078125 26.82362838 24.30078125 33.65234375 C24.96078125 33.65234375 25.62078125 33.65234375 26.30078125 33.65234375 C26.63078125 35.30234375 26.96078125 36.95234375 27.30078125 38.65234375 C27.96078125 38.65234375 28.62078125 38.65234375 29.30078125 38.65234375 C29.86345703 39.8125 29.86345703 39.8125 30.4375 40.99609375 C30.94925781 42.03765625 31.46101562 43.07921875 31.98828125 44.15234375 C32.48714844 45.17328125 32.98601562 46.19421875 33.5 47.24609375 C35.16535314 50.39617605 36.96772714 53.36283926 38.87524414 56.3671875 C41.75240155 60.97931172 44.44658236 65.70172787 47.17578125 70.40234375 C47.76230469 71.41039062 48.34882813 72.4184375 48.953125 73.45703125 C50.14227808 75.50080643 51.33099575 77.54483501 52.51928711 79.58911133 C56.63958089 86.67384835 60.77408259 93.75030934 64.90625 100.828125 C66.10026042 102.87369792 67.29427083 104.91927083 68.48828125 106.96484375 C69.09091797 107.99673828 69.69355469 109.02863281 70.31445312 110.09179688 C71.46883996 112.06984062 72.62114752 114.04909985 73.77099609 116.02978516 C74.70865467 117.63724262 75.65491761 119.23976563 76.61572266 120.83349609 C79.30078125 125.33377232 79.30078125 125.33377232 79.30078125 128.65234375 C79.96078125 128.65234375 80.62078125 128.65234375 81.30078125 128.65234375 C82.02994792 129.96484375 82.75911458 131.27734375 83.48828125 132.58984375 C83.94976562 133.41871094 84.41125 134.24757812 84.88671875 135.1015625 C85.75242152 136.6631755 86.61305046 138.22763167 87.46484375 139.796875 C89.92006402 144.29811217 92.5307405 148.67262992 95.23828125 153.02734375 C98.22490566 157.841604 101.00032734 162.71334815 103.671875 167.70703125 C105.9601296 171.84454675 108.40878983 175.88038675 110.87866211 179.91162109 C113.07140838 183.51473462 115.14077746 187.16520063 117.1484375 190.875 C120.38698406 196.85456537 123.79679766 202.72531341 127.23828125 208.58984375 C130.765625 214.6171875 130.765625 214.6171875 132.52050781 217.61621094 C133.73761002 219.69189429 134.95849124 221.76536517 136.18261719 223.83691406 C139.21648458 228.98952033 142.17381769 234.09490353 144.67578125 239.52734375 C145.39894531 241.07035156 145.39894531 241.07035156 146.13671875 242.64453125 C148.47494153 248.68624782 148.48325801 254.6377769 148.48828125 261.02734375 C148.50052734 261.83945312 148.51277344 262.6515625 148.52539062 263.48828125 C148.55038415 273.88558705 145.52342488 285.16692062 139.30078125 293.65234375 C138.64078125 293.65234375 137.98078125 293.65234375 137.30078125 293.65234375 C136.96046875 294.48765625 136.96046875 294.48765625 136.61328125 295.33984375 C134.34477676 299.33673261 131.68178179 302.19201024 127.30078125 303.65234375 C127.30078125 304.31234375 127.30078125 304.97234375 127.30078125 305.65234375 C111.22122569 314.23076669 96.80738476 318.90654689 78.41015625 313.78515625 C72.44806714 311.61303836 66.87608166 308.66267607 61.30078125 305.65234375 C61.30078125 304.99234375 61.30078125 304.33234375 61.30078125 303.65234375 C60.21796875 303.34296875 60.21796875 303.34296875 59.11328125 303.02734375 C55.32859741 301.17705387 53.77819472 299.04993937 51.30078125 295.65234375 C51.30078125 294.99234375 51.30078125 294.33234375 51.30078125 293.65234375 C50.64078125 293.65234375 49.98078125 293.65234375 49.30078125 293.65234375 C47.62216212 291.07705217 46.0689806 288.50798874 44.55078125 285.83984375 C44.133125 285.12119141 43.71546875 284.40253906 43.28515625 283.66210938 C40.93499533 279.59590107 38.66567559 275.49145027 36.43359375 271.359375 C32.487934 264.09075373 28.2326674 257.00489004 23.984375 249.91015625 C23.37980469 248.88664062 22.77523437 247.863125 22.15234375 246.80859375 C21.32984131 245.42897461 21.32984131 245.42897461 20.49072266 244.02148438 C19.30078125 241.65234375 19.30078125 241.65234375 19.30078125 238.65234375 C18.64078125 238.65234375 17.98078125 238.65234375 17.30078125 238.65234375 C16.57161458 237.33984375 15.84244792 236.02734375 15.11328125 234.71484375 C14.65179688 233.88597656 14.1903125 233.05710937 13.71484375 232.203125 C12.84914098 230.641512 11.98851204 229.07705583 11.13671875 227.5078125 C8.68149848 223.00657533 6.070822 218.63205758 3.36328125 214.27734375 C0.37665684 209.4630835 -2.39876484 204.59133935 -5.0703125 199.59765625 C-7.02638257 196.06078135 -9.10431703 192.60819547 -11.19921875 189.15234375 C-14.31786579 184.00251506 -17.3025023 178.81097415 -20.1484375 173.50390625 C-23.23324956 167.83158181 -26.48002416 162.24916684 -29.69921875 156.65234375 C-30.35921875 156.65234375 -31.01921875 156.65234375 -31.69921875 156.65234375 C-33.37810645 159.22804737 -34.93120752 161.79607755 -36.44921875 164.46484375 C-36.90095459 165.24585449 -37.35269043 166.02686523 -37.81811523 166.83154297 C-40.67590487 171.79283385 -43.43397888 176.80240655 -46.140625 181.84765625 C-48.44535676 185.99501817 -50.91770434 190.03765894 -53.37646484 194.0949707 C-56.15361958 198.69518368 -58.76091615 203.36562619 -61.30078125 208.1015625 C-63.189002 211.54571934 -65.22484582 214.89234228 -67.26171875 218.25 C-69.50433827 221.99785599 -71.59875261 225.82364597 -73.69921875 229.65234375 C-74.63584472 231.34032902 -75.57332366 233.02784133 -76.51171875 234.71484375 C-76.93066406 235.46894531 -77.34960938 236.22304688 -77.78125 237 C-78.08417969 237.54527344 -78.38710937 238.09054687 -78.69921875 238.65234375 C-79.35921875 238.65234375 -80.01921875 238.65234375 -80.69921875 238.65234375 C-80.79887939 239.36245605 -80.89854004 240.07256836 -81.0012207 240.80419922 C-81.80345631 244.07767967 -83.10263811 246.35359274 -84.8671875 249.22265625 C-85.51365234 250.28484375 -86.16011719 251.34703125 -86.82617188 252.44140625 C-87.50615234 253.54226563 -88.18613281 254.643125 -88.88671875 255.77734375 C-93.20935365 262.82851014 -97.44563102 269.88358964 -101.36157227 277.16992188 C-103.20676706 280.59425855 -105.13388721 283.96880083 -107.07421875 287.33984375 C-107.42871094 287.95794922 -107.78320312 288.57605469 -108.1484375 289.21289062 C-108.99766526 290.69330119 -109.84827837 292.17291694 -110.69921875 293.65234375 C-111.35921875 293.65234375 -112.01921875 293.65234375 -112.69921875 293.65234375 C-112.92609375 294.20921875 -113.15296875 294.76609375 -113.38671875 295.33984375 C-115.65522324 299.33673261 -118.31821821 302.19201024 -122.69921875 303.65234375 C-122.69921875 304.31234375 -122.69921875 304.97234375 -122.69921875 305.65234375 C-138.77877431 314.23076669 -153.19261524 318.90654689 -171.58984375 313.78515625 C-177.55193286 311.61303836 -183.12391834 308.66267607 -188.69921875 305.65234375 C-188.69921875 304.99234375 -188.69921875 304.33234375 -188.69921875 303.65234375 C-189.78203125 303.34296875 -189.78203125 303.34296875 -190.88671875 303.02734375 C-194.67140259 301.17705387 -196.22180528 299.04993937 -198.69921875 295.65234375 C-198.69921875 294.99234375 -198.69921875 294.33234375 -198.69921875 293.65234375 C-199.35921875 293.65234375 -200.01921875 293.65234375 -200.69921875 293.65234375 C-201.66009011 291.75779551 -202.61780844 289.86164794 -203.57421875 287.96484375 C-204.10789062 286.90910156 -204.6415625 285.85335938 -205.19140625 284.765625 C-209.02035383 276.859741 -209.87988654 269.96790856 -209.88671875 261.27734375 C-209.89896484 260.46523438 -209.91121094 259.653125 -209.92382812 258.81640625 C-209.95835589 244.45285699 -203.11298332 232.95795847 -195.94921875 220.90234375 C-195.33304688 219.8546582 -194.716875 218.80697266 -194.08203125 217.72753906 C-190.31142727 211.32816149 -186.47758507 204.96881725 -182.61694336 198.62353516 C-179.83131332 193.99423096 -177.45199588 189.21763938 -175.09765625 184.359375 C-173.35047094 180.97725372 -171.28903268 177.90707498 -169.125 174.78125 C-167.26879441 172.00965535 -165.70997362 169.11605308 -164.125 166.18359375 C-161.72371829 161.92049635 -159.0811577 157.80386469 -156.46875 153.66796875 C-154.92132016 151.03084769 -153.73512404 148.52100455 -152.69921875 145.65234375 C-152.03921875 145.65234375 -151.37921875 145.65234375 -150.69921875 145.65234375 C-150.59609375 145.10835937 -150.49296875 144.564375 -150.38671875 144.00390625 C-149.53251427 141.08213864 -148.18704434 138.68110958 -146.69921875 136.02734375 C-145.89484375 134.58488281 -145.89484375 134.58488281 -145.07421875 133.11328125 C-144.62046875 132.30117187 -144.16671875 131.4890625 -143.69921875 130.65234375 C-143.36921875 129.99234375 -143.03921875 129.33234375 -142.69921875 128.65234375 C-142.03921875 128.65234375 -141.37921875 128.65234375 -140.69921875 128.65234375 C-140.59955811 127.94223145 -140.49989746 127.23211914 -140.3972168 126.50048828 C-139.59498119 123.22700783 -138.29579939 120.95109476 -136.53125 118.08203125 C-135.88478516 117.01984375 -135.23832031 115.95765625 -134.57226562 114.86328125 C-133.55229492 113.21199219 -133.55229492 113.21199219 -132.51171875 111.52734375 C-128.18611807 104.47133952 -123.96033507 97.40871449 -120.04174805 90.11767578 C-118.19734624 86.73073825 -116.21348024 83.44006764 -114.19921875 80.15234375 C-111.01770067 74.9084714 -107.99711007 69.60956514 -105.09765625 64.203125 C-103.2130841 60.76562329 -101.18150334 57.42530891 -99.1484375 54.07421875 C-96.13565081 49.03937307 -93.29491578 43.91452956 -90.69921875 38.65234375 C-90.03921875 38.65234375 -89.37921875 38.65234375 -88.69921875 38.65234375 C-88.36921875 37.00234375 -88.03921875 35.35234375 -87.69921875 33.65234375 C-87.03921875 33.65234375 -86.37921875 33.65234375 -85.69921875 33.65234375 C-85.5909375 32.92660156 -85.48265625 32.20085937 -85.37109375 31.453125 C-84.6505444 28.44943964 -83.58471535 26.44905095 -81.94921875 23.83984375 C-81.40523437 22.97101563 -80.86125 22.1021875 -80.30078125 21.20703125 C-79.77226562 20.36398438 -79.24375 19.5209375 -78.69921875 18.65234375 C-78.29445312 17.93304688 -77.8896875 17.21375 -77.47265625 16.47265625 C-74.38664259 11.07738066 -70.49661086 7.54186285 -65.69921875 3.65234375 C-64.77109375 2.78609375 -63.84296875 1.91984375 -62.88671875 1.02734375 C-44.80531956 -12.44507133 -18.60500462 -11.96688513 0 0 Z " fill="#FECC03" transform="translate(280.69921875,96.34765625)"/>
<path d="M0 0 C0.495 0.99 0.495 0.99 1 2 C3.02463255 2.65213292 3.02463255 2.65213292 5 3 C5.495 5.475 5.495 5.475 6 8 C6.66 8 7.32 8 8 8 C8.37511719 8.7734375 8.75023437 9.546875 9.13671875 10.34375 C9.64847656 11.3853125 10.16023438 12.426875 10.6875 13.5 C11.18636719 14.5209375 11.68523437 15.541875 12.19921875 16.59375 C13.86457189 19.7438323 15.66694589 22.71049551 17.57446289 25.71484375 C20.4516203 30.32696797 23.14580111 35.04938412 25.875 39.75 C26.46152344 40.75804687 27.04804688 41.76609375 27.65234375 42.8046875 C28.84149683 44.84846268 30.0302145 46.89249126 31.21850586 48.93676758 C35.33879964 56.0215046 39.47330134 63.09796559 43.60546875 70.17578125 C44.79947917 72.22135417 45.99348958 74.26692708 47.1875 76.3125 C47.79013672 77.34439453 48.39277344 78.37628906 49.01367188 79.43945312 C50.16805871 81.41749687 51.32036627 83.3967561 52.47021484 85.37744141 C53.40787342 86.98489887 54.35413636 88.58742188 55.31494141 90.18115234 C58 94.68142857 58 94.68142857 58 98 C58.66 98 59.32 98 60 98 C60.72916667 99.3125 61.45833333 100.625 62.1875 101.9375 C62.64898437 102.76636719 63.11046875 103.59523438 63.5859375 104.44921875 C64.45164027 106.01083175 65.31226921 107.57528792 66.1640625 109.14453125 C68.61928277 113.64576842 71.22995925 118.02028617 73.9375 122.375 C76.92412441 127.18926025 79.69954609 132.0610044 82.37109375 137.0546875 C84.65934835 141.192203 87.10800858 145.228043 89.57788086 149.25927734 C91.77062713 152.86239087 93.83999621 156.51285688 95.84765625 160.22265625 C99.08620281 166.20222162 102.49601641 172.07296966 105.9375 177.9375 C109.46484375 183.96484375 109.46484375 183.96484375 111.21972656 186.96386719 C112.43682877 189.03955054 113.65770999 191.11302142 114.88183594 193.18457031 C117.91570333 198.33717658 120.87303644 203.44255978 123.375 208.875 C124.09816406 210.41800781 124.09816406 210.41800781 124.8359375 211.9921875 C127.17416028 218.03390407 127.18247676 223.98543315 127.1875 230.375 C127.19974609 231.18710937 127.21199219 231.99921875 127.22460938 232.8359375 C127.2496029 243.2332433 124.22264363 254.51457687 118 263 C117.34 263 116.68 263 116 263 C115.6596875 263.8353125 115.6596875 263.8353125 115.3125 264.6875 C113.04399551 268.68438886 110.38100054 271.53966649 106 273 C106 273.66 106 274.32 106 275 C89.92044444 283.57842294 75.50660351 288.25420314 57.109375 283.1328125 C51.14728589 280.96069461 45.57530041 278.01033232 40 275 C40 274.34 40 273.68 40 273 C38.9171875 272.690625 38.9171875 272.690625 37.8125 272.375 C34.02781616 270.52471012 32.47741347 268.39759562 30 265 C30 264.34 30 263.68 30 263 C29.34 263 28.68 263 28 263 C26.32138087 260.42470842 24.76819935 257.85564499 23.25 255.1875 C22.83234375 254.46884766 22.4146875 253.75019531 21.984375 253.00976562 C19.63421408 248.94355732 17.36489434 244.83910652 15.1328125 240.70703125 C11.18715275 233.43840998 6.93188615 226.35254629 2.68359375 219.2578125 C2.07902344 218.23429688 1.47445312 217.21078125 0.8515625 216.15625 C0.02906006 214.77663086 0.02906006 214.77663086 -0.81005859 213.36914062 C-2 211 -2 211 -2 208 C-2.66 208 -3.32 208 -4 208 C-4.72916667 206.6875 -5.45833333 205.375 -6.1875 204.0625 C-6.64898437 203.23363281 -7.11046875 202.40476562 -7.5859375 201.55078125 C-8.45164027 199.98916825 -9.31226921 198.42471208 -10.1640625 196.85546875 C-12.61928277 192.35423158 -15.22995925 187.97971383 -17.9375 183.625 C-20.92412441 178.81073975 -23.69954609 173.9389956 -26.37109375 168.9453125 C-28.32716174 165.40844136 -30.40503231 161.9558088 -32.5 158.5 C-35.64899512 153.30210394 -38.65528865 148.05897177 -41.5234375 142.69921875 C-43.74004698 138.64716279 -46.11299221 134.68954905 -48.484375 130.7265625 C-50.80572678 126.55052245 -52 123.83037321 -52 119 C-51.34 119 -50.68 119 -50 119 C-49.67 117.35 -49.34 115.7 -49 114 C-47.515 113.505 -47.515 113.505 -46 113 C-45.31060191 110.67328146 -44.64533078 108.33932406 -44 106 C-43.01750445 104.98279673 -42.01637977 103.98334743 -41 103 C-39.90530823 101.17109365 -39.90530823 101.17109365 -39 99.1875 C-38.66484375 98.49011719 -38.3296875 97.79273438 -37.984375 97.07421875 C-37.65953125 96.38972656 -37.3346875 95.70523438 -37 95 C-36 93 -35 91 -34 89 C-33.34 89 -32.68 89 -32 89 C-31.67 86.69 -31.34 84.38 -31 82 C-29.515 81.505 -29.515 81.505 -28 81 C-27.32843384 79.06381575 -27.32843384 79.06381575 -27 77 C-26.67 76.34 -26.34 75.68 -26 75 C-25.34 75 -24.68 75 -24 75 C-23.896875 74.278125 -23.79375 73.55625 -23.6875 72.8125 C-22.93206053 69.72206579 -21.84468685 67.58256159 -20 65 C-19.34 65 -18.68 65 -18 65 C-17.566875 63.63875 -17.566875 63.63875 -17.125 62.25 C-16.23468224 59.67797092 -15.28505587 57.38653234 -14 55 C-13.34 55 -12.68 55 -12 55 C-11.87165771 54.41210693 -11.74331543 53.82421387 -11.61108398 53.21850586 C-10.65230502 49.73771304 -8.79854022 46.70580822 -7.0625 43.5625 C-2.53626413 35.32782758 0.14711731 28.54075904 0.09765625 18.9453125 C0.09443359 17.83671875 0.09121094 16.728125 0.08789062 15.5859375 C0.07951172 14.44382813 0.07113281 13.30171875 0.0625 12.125 C0.05798828 10.9596875 0.05347656 9.794375 0.04882812 8.59375 C0.03708781 5.72911355 0.0206657 2.86458367 0 0 Z " fill="#3A8DC8" transform="translate(302,127)"/>
<path d="M0 0 C3.64516963 2.61783829 7.25010494 5.34602417 10.30078125 8.65234375 C10.30078125 9.31234375 10.30078125 9.97234375 10.30078125 10.65234375 C10.96078125 10.65234375 11.62078125 10.65234375 12.30078125 10.65234375 C24.30078125 26.82362838 24.30078125 26.82362838 24.30078125 32.65234375 C23.64078125 32.65234375 22.98078125 32.65234375 22.30078125 32.65234375 C22.31125488 33.3071875 22.32172852 33.96203125 22.33251953 34.63671875 C22.37443484 37.64188707 22.40021934 40.64699359 22.42578125 43.65234375 C22.44253906 44.68230469 22.45929688 45.71226562 22.4765625 46.7734375 C22.53702565 56.26615188 20.77276249 63.37910242 16.36328125 71.77734375 C16.01587891 72.45410156 15.66847656 73.13085938 15.31054688 73.828125 C14.63219007 75.14906839 13.95083058 76.46847519 13.26611328 77.78613281 C11.91686658 80.39453994 10.60753478 83.02245106 9.30078125 85.65234375 C8.64078125 85.65234375 7.98078125 85.65234375 7.30078125 85.65234375 C7.01203125 86.37421875 6.72328125 87.09609375 6.42578125 87.83984375 C6.05453125 88.76796875 5.68328125 89.69609375 5.30078125 90.65234375 C4.99140625 91.51859375 4.68203125 92.38484375 4.36328125 93.27734375 C3.30078125 95.65234375 3.30078125 95.65234375 1.86328125 97.02734375 C-0.53931519 99.52604404 -1.42753826 102.44286441 -2.69921875 105.65234375 C-3.35921875 105.65234375 -4.01921875 105.65234375 -4.69921875 105.65234375 C-4.98796875 106.62171875 -5.27671875 107.59109375 -5.57421875 108.58984375 C-6.69921875 111.65234375 -6.69921875 111.65234375 -8.69921875 112.65234375 C-9.02921875 113.80734375 -9.35921875 114.96234375 -9.69921875 116.15234375 C-10.02921875 117.30734375 -10.35921875 118.46234375 -10.69921875 119.65234375 C-11.35921875 119.98234375 -12.01921875 120.31234375 -12.69921875 120.65234375 C-13.40775427 122.30559329 -14.11127871 123.96122952 -14.78515625 125.62890625 C-16.06757246 128.46775922 -17.74670963 130.9878477 -19.4375 133.59765625 C-21.0769902 136.26753813 -22.40248106 139.04485845 -23.70703125 141.890625 C-24.69921875 143.65234375 -24.69921875 143.65234375 -26.25390625 145.1953125 C-27.96222412 146.70202891 -27.96222412 146.70202891 -28.69921875 149.65234375 C-29.35921875 149.65234375 -30.01921875 149.65234375 -30.69921875 149.65234375 C-31.02921875 150.64234375 -31.35921875 151.63234375 -31.69921875 152.65234375 C-32.68405983 150.90553082 -33.66188062 149.15475865 -34.63671875 147.40234375 C-35.18199219 146.4278125 -35.72726563 145.45328125 -36.2890625 144.44921875 C-37.4653271 142.11623966 -38.22023566 140.19883613 -38.69921875 137.65234375 C-39.35921875 137.65234375 -40.01921875 137.65234375 -40.69921875 137.65234375 C-41.05113281 136.90210938 -41.40304688 136.151875 -41.765625 135.37890625 C-44.7725453 129.14523858 -48.04085328 123.49330223 -52.09765625 117.890625 C-55.51853919 113.1097325 -58.02347154 108.25570004 -59.79296875 102.64453125 C-60.68214385 100.47277288 -60.68214385 100.47277288 -62.61328125 98.265625 C-64.74732449 95.59207644 -66.1155799 93.05105985 -67.57421875 89.96484375 C-69.45668523 86.08639523 -71.41673925 82.37159101 -73.69921875 78.71484375 C-82.20097612 64.79880933 -87.10419492 51.0991448 -84.1640625 34.66015625 C-83.45766959 31.93494645 -82.63712343 29.30641445 -81.69921875 26.65234375 C-81.38597656 25.76417969 -81.07273438 24.87601563 -80.75 23.9609375 C-77.40887062 15.09968131 -72.90913588 9.64885017 -65.69921875 3.65234375 C-64.77109375 2.78609375 -63.84296875 1.91984375 -62.88671875 1.02734375 C-44.80531956 -12.44507133 -18.60500462 -11.96688513 0 0 Z " fill="#78B443" transform="translate(280.69921875,96.34765625)"/>
<path d="M0 0 C0.5625 1.9375 0.5625 1.9375 1 4 C0.67 4.33 0.34 4.66 0 5 C-0.103125 6.11375 -0.20625 7.2275 -0.3125 8.375 C-1.12014638 12.63349909 -1.71610358 12.61171169 -5 15 C-5.309375 16.134375 -5.61875 17.26875 -5.9375 18.4375 C-7 22 -7 22 -9.3125 23.75 C-12.95089318 26.79609661 -14.01783132 30.26457662 -15.69140625 34.63671875 C-17 37 -17 37 -19.15234375 37.83203125 C-19.76207031 37.88746094 -20.37179688 37.94289062 -21 38 C-19.42263472 32.00601195 -16.25033911 27.20054258 -13 22 C-8.50384098 14.74983359 -4.03995697 7.51665072 0 0 Z " fill="#F8D235" transform="translate(186,143)"/>
<path d="M0 0 C0.33 0 0.66 0 1 0 C1.3227506 4.62609198 0.84450614 7.28026121 -2 11 C-2.66 11 -3.32 11 -4 11 C-4 11.99 -4 12.98 -4 14 C-4.66 14 -5.32 14 -6 14 C-6.268125 14.721875 -6.53625 15.44375 -6.8125 16.1875 C-7.99901362 18.99766383 -9.27485639 21.48416557 -11 24 C-11.66 24 -12.32 24 -13 24 C-13 25.98 -13 27.96 -13 30 C-13.66 30 -14.32 30 -15 30 C-15 30.99 -15 31.98 -15 33 C-15.66 33 -16.32 33 -17 33 C-17.19335938 33.62648438 -17.38671875 34.25296875 -17.5859375 34.8984375 C-17.84632812 35.71570313 -18.10671875 36.53296875 -18.375 37.375 C-18.75785156 38.59316406 -18.75785156 38.59316406 -19.1484375 39.8359375 C-20 42 -20 42 -22 44 C-21.13590193 33.34279042 -14.13138815 23.45929749 -8.8125 14.5 C-8.18408203 13.43007813 -7.55566406 12.36015625 -6.90820312 11.2578125 C-2.39445755 3.59168632 -2.39445755 3.59168632 0 0 Z " fill="#F8E37B" transform="translate(94,302)"/>
<path d="M0 0 C0.99 0 1.98 0 3 0 C1.42263472 5.99398805 -1.74966089 10.79945742 -5 16 C-9.49615902 23.25016641 -13.96004303 30.48334928 -18 38 C-19.24546405 35.50907189 -18.7767578 34.58919267 -18 32 C-17.34 32 -16.68 32 -16 32 C-16 30.35 -16 28.7 -16 27 C-15.34 27 -14.68 27 -14 27 C-14 25.68 -14 24.36 -14 23 C-12.68 22.67 -11.36 22.34 -10 22 C-9.505 17.545 -9.505 17.545 -9 13 C-8.01 13 -7.02 13 -6 13 C-6 11.68 -6 10.36 -6 9 C-5.34 9 -4.68 9 -4 9 C-3.34 7.35 -2.68 5.7 -2 4 C-1.34 4 -0.68 4 0 4 C0 2.68 0 1.36 0 0 Z " fill="#F8DD5D" transform="translate(227,284)"/>
<path d="M0 0 C1 2 1 2 0.51171875 3.953125 C0.10373047 5.09007813 0.10373047 5.09007813 -0.3125 6.25 C-0.70888672 7.37148437 -0.70888672 7.37148437 -1.11328125 8.515625 C-1.75266608 10.3070292 -2.41580986 12.09001584 -3.09375 13.8671875 C-5.38769156 21.79710616 -4.29279944 30.92000351 -3 39 C-5.63746863 36.42483378 -6.21887499 34.45668604 -6.29296875 30.890625 C-6.27313353 29.34347769 -6.2375101 27.79646604 -6.1875 26.25 C-6.17396484 25.45722656 -6.16042969 24.66445312 -6.14648438 23.84765625 C-6.11125223 21.89814436 -6.05744821 19.94898374 -6 18 C-6.66 18 -7.32 18 -8 18 C-8 19.32 -8 20.64 -8 22 C-8.61875 22.28875 -9.2375 22.5775 -9.875 22.875 C-12.13325765 23.93720042 -12.13325765 23.93720042 -14 26 C-13.37240135 23.07120629 -12.41377341 20.63904371 -11 18 C-10.34 18 -9.68 18 -9 18 C-8.67 16.35 -8.34 14.7 -8 13 C-7.34 13 -6.68 13 -6 13 C-5.938125 12.34 -5.87625 11.68 -5.8125 11 C-4.67863503 6.81342164 -2.40368936 3.57449008 0 0 Z " fill="#EFD63E" transform="translate(201,117)"/>
<path d="M0 0 C1.79158489 -0.02696365 3.58328473 -0.04637917 5.375 -0.0625 C6.37273437 -0.07410156 7.37046875 -0.08570313 8.3984375 -0.09765625 C11 0 11 0 13 1 C15.10528933 1.08543895 17.21331157 1.10714725 19.3203125 1.09765625 C21.20556641 1.09282227 21.20556641 1.09282227 23.12890625 1.08789062 C24.44761719 1.07951172 25.76632813 1.07113281 27.125 1.0625 C28.46484211 1.05748489 29.804686 1.05292201 31.14453125 1.04882812 C34.42973206 1.03701086 37.71484397 1.02053617 41 1 C36.42149125 5.57850875 28.25449635 5.16979554 22.125 5.3125 C14.43830266 5.20329009 6.50561405 4.33707603 0 0 Z " fill="#F6D54E" transform="translate(103,407)"/>
<path d="M0 0 C0.66 0 1.32 0 2 0 C2.33 1.65 2.66 3.3 3 5 C3.66 5 4.32 5 5 5 C5.56267578 6.16015625 5.56267578 6.16015625 6.13671875 7.34375 C9.13814506 13.45244637 12.27479356 19.30651072 16 25 C19 29.75862069 19 29.75862069 19 32 C17.68 31.34 16.36 30.68 15 30 C15 29.34 15 28.68 15 28 C14.01 28 13.02 28 12 28 C11.79375 27.071875 11.5875 26.14375 11.375 25.1875 C10.09034991 20.59276612 7.71660595 16.65926749 5.33984375 12.55078125 C4.16427725 10.31274941 3.46785254 8.46633375 3 6 C1.68 6 0.36 6 -1 6 C-0.67 4.02 -0.34 2.04 0 0 Z " fill="#8BBAD8" transform="translate(305,130)"/>
<path d="M0 0 C0.33 0.66 0.66 1.32 1 2 C0.22265625 3.7265625 0.22265625 3.7265625 -0.9375 5.625 C-1.618125 6.73875 -2.29875 7.8525 -3 9 C-3.66 9 -4.32 9 -5 9 C-5.226875 9.556875 -5.45375 10.11375 -5.6875 10.6875 C-7.95600449 14.68438886 -10.61899946 17.53966649 -15 19 C-15 19.66 -15 20.32 -15 21 C-16.7664657 22.0076952 -18.53833823 23.00591714 -20.3125 24 C-21.29863281 24.556875 -22.28476563 25.11375 -23.30078125 25.6875 C-26 27 -26 27 -29 27 C-29 26.01 -29 25.02 -29 24 C-28.43410156 23.87882812 -27.86820313 23.75765625 -27.28515625 23.6328125 C-26.55167969 23.46523438 -25.81820312 23.29765625 -25.0625 23.125 C-24.33160156 22.96257812 -23.60070312 22.80015625 -22.84765625 22.6328125 C-20.79299706 22.17038477 -20.79299706 22.17038477 -20 20 C-19.34 20 -18.68 20 -18 20 C-18 19.34 -18 18.68 -18 18 C-17.34 17.34 -16.68 16.68 -16 16 C-14.68 16 -13.36 16 -12 16 C-11.67 14.68 -11.34 13.36 -11 12 C-10.34 12 -9.68 12 -9 12 C-9 10.02 -9 8.04 -9 6 C-8.34 6 -7.68 6 -7 6 C-7 6.66 -7 7.32 -7 8 C-4.35247996 5.42215154 -2.05567935 3.08351902 0 0 Z " fill="#FAE16F" transform="translate(173,381)"/>
<path d="M0 0 C0.33 0.99 0.66 1.98 1 3 C0.34 3 -0.32 3 -1 3 C-1.33 4.98 -1.66 6.96 -2 9 C-2.66 9 -3.32 9 -4 9 C-4 10.32 -4 11.64 -4 13 C-4.66 13 -5.32 13 -6 13 C-5.67 15.64 -5.34 18.28 -5 21 C-5.639375 21.33 -6.27875 21.66 -6.9375 22 C-10.0552764 25.02329832 -9.72043064 27.73656724 -10 32 C-10.33 32 -10.66 32 -11 32 C-11.88774081 21.07585618 -9.08846648 9.58331316 -2 1 C-1.34 0.67 -0.68 0.34 0 0 Z " fill="#7DB247" transform="translate(209,106)"/>
<path d="M0 0 C1.60876172 4.02190431 0.49934552 7.07314269 -1 11 C-3 12.625 -3 12.625 -5 14 C-6.26847685 16.58498512 -6.26847685 16.58498512 -7 19 C-7.66 19 -8.32 19 -9 19 C-9.28875 19.639375 -9.5775 20.27875 -9.875 20.9375 C-11 23 -11 23 -13 24 C-11.54349378 18.89431245 -9.26847809 14.78363634 -6.5 10.3125 C-5.89478516 9.31766602 -5.89478516 9.31766602 -5.27734375 8.30273438 C-3.56672808 5.49969583 -1.82164506 2.7324676 0 0 Z " fill="#FADA57" transform="translate(153,200)"/>
<path d="M0 0 C2.65262179 1.32631089 3.21099749 2.85343108 4.625 5.4375 C5.07101562 6.24058594 5.51703125 7.04367188 5.9765625 7.87109375 C7 10 7 10 7 12 C6.34 12 5.68 12 5 12 C5.01047363 12.68626465 5.02094727 13.3725293 5.03173828 14.07958984 C5.07321874 17.17802289 5.09930069 20.27639761 5.125 23.375 C5.14175781 24.45523438 5.15851563 25.53546875 5.17578125 26.6484375 C5.18222656 27.6796875 5.18867188 28.7109375 5.1953125 29.7734375 C5.20578613 30.72653809 5.21625977 31.67963867 5.22705078 32.66162109 C5 35 5 35 3 37 C3.01160156 35.91203125 3.02320313 34.8240625 3.03515625 33.703125 C3.32945611 20.79249885 3.32945611 20.79249885 2 8 C1.34 7.34 0.68 6.68 0 6 C-0.125 2.875 -0.125 2.875 0 0 Z " fill="#70B25B" transform="translate(298,117)"/>
<path d="M0 0 C0.33 0.66 0.66 1.32 1 2 C1.66 2 2.32 2 3 2 C3.05878077 5.64576392 3.0938558 9.29140352 3.125 12.9375 C3.14175781 13.95908203 3.15851563 14.98066406 3.17578125 16.03320312 C3.21618815 22.35688352 2.62010013 27.88316527 1 34 C0.34 33.67 -0.32 33.34 -1 33 C-0.83628906 31.948125 -0.67257812 30.89625 -0.50390625 29.8125 C0.23675732 23.88719143 0.10688691 17.96150311 0.0625 12 C0.05573242 10.26556641 0.05573242 10.26556641 0.04882812 8.49609375 C0.03712529 5.66400775 0.02072996 2.83203189 0 0 Z " fill="#418FA5" transform="translate(302,127)"/>
<path d="M0 0 C0.33 0 0.66 0 1 0 C1.0501123 0.66531738 1.10022461 1.33063477 1.15185547 2.01611328 C1.38506072 5.05306969 1.62992364 8.08897946 1.875 11.125 C1.95363281 12.17171875 2.03226563 13.2184375 2.11328125 14.296875 C2.53922339 19.47371022 3.00059391 24.1442995 5 29 C5.33 29 5.66 29 6 29 C6 30.98 6 32.96 6 35 C3.59888271 32.10256238 2.37871389 29.61778194 1.375 26 C1.13523438 25.154375 0.89546875 24.30875 0.6484375 23.4375 C0.32746094 22.2309375 0.32746094 22.2309375 0 21 C-0.19078125 20.38253906 -0.3815625 19.76507813 -0.578125 19.12890625 C-1.1875944 16.0533431 -1.13158599 13.06913632 -1.125 9.9375 C-1.12757813 8.70902344 -1.13015625 7.48054687 -1.1328125 6.21484375 C-1 3 -1 3 0 0 Z " fill="#91B42D" transform="translate(197,131)"/>
<path d="M0 0 C1.09535653 3.24018606 0.97855202 4.80306036 -0.51171875 7.86328125 C-0.85783203 8.58580078 -1.20394531 9.30832031 -1.56054688 10.05273438 C-1.93244141 10.79845703 -2.30433594 11.54417969 -2.6875 12.3125 C-3.21633789 13.41368164 -3.21633789 13.41368164 -3.75585938 14.53710938 C-5.9893046 19.13874149 -8.41686083 23.58592245 -11 28 C-11.66 28 -12.32 28 -13 28 C-13.33 28.66 -13.66 29.32 -14 30 C-13.38722388 27.03824877 -12.74627478 25.61941217 -11 23 C-10.7834375 21.7315625 -10.7834375 21.7315625 -10.5625 20.4375 C-10 18 -10 18 -7 16 C-6.27617533 13.94074861 -6.27617533 13.94074861 -6 12 C-5.34 12 -4.68 12 -4 12 C-3.8453125 10.9790625 -3.8453125 10.9790625 -3.6875 9.9375 C-2.85274981 6.37084011 -1.50527246 3.33777806 0 0 Z " fill="#68AD6A" transform="translate(301,154)"/>
<path d="M0 0 C0.6875 1.6875 0.6875 1.6875 1 4 C-0.3125 6.75 -0.3125 6.75 -2 9 C-2.66 9 -3.32 9 -4 9 C-4 10.65 -4 12.3 -4 14 C-4.66 14 -5.32 14 -6 14 C-6.2165625 14.8971875 -6.2165625 14.8971875 -6.4375 15.8125 C-6.8872439 17.56150404 -7.42892341 19.28677023 -8 21 C-8.66 21 -9.32 21 -10 21 C-10.33 21.99 -10.66 22.98 -11 24 C-11.33 22.68 -11.66 21.36 -12 20 C-11.01 19.67 -10.02 19.34 -9 19 C-8.67 16.69 -8.34 14.38 -8 12 C-7.01 11.67 -6.02 11.34 -5 11 C-4.32843384 9.06381575 -4.32843384 9.06381575 -4 7 C-3.67 6.34 -3.34 5.68 -3 5 C-2.34 5 -1.68 5 -1 5 C-0.67 3.35 -0.34 1.7 0 0 Z " fill="#549E8B" transform="translate(279,197)"/>
<path d="M0 0 C4.21543758 1.50551342 5.86049125 4.17944866 8 8 C8 9.32 8 10.64 8 12 C8.66 12 9.32 12 10 12 C10 12.99 10 13.98 10 15 C10.66 15 11.32 15 12 15 C12.33 16.98 12.66 18.96 13 21 C9.40653601 17.77799521 7.12611498 14.11763363 4.8125 9.9375 C4.45736328 9.31294922 4.10222656 8.68839844 3.73632812 8.04492188 C2.24259168 5.38907549 0.96590385 2.89771156 0 0 Z " fill="#A0B726" transform="translate(223,203)"/>
<path d="M0 0 C0 3.27998512 -0.52274982 4.28627406 -2.125 7.0625 C-2.57488281 7.84625 -3.02476562 8.63 -3.48828125 9.4375 C-5.96754608 13.64007811 -8.46656148 17.82983832 -11 22 C-12.05609899 18.83170302 -12.13055309 18.01480825 -11 15 C-10.54625 14.566875 -10.0925 14.13375 -9.625 13.6875 C-7.18338738 11.1519792 -6.29220897 8.2612893 -5 5 C-4.34 5 -3.68 5 -3 5 C-3 4.01 -3 3.02 -3 2 C-2.01 1.34 -1.02 0.68 0 0 Z " fill="#F8E274" transform="translate(242,262)"/>
<path d="M0 0 C2.63744638 1.31872319 3.20619668 2.8111975 4.625 5.375 C5.07101563 6.16648438 5.51703125 6.95796875 5.9765625 7.7734375 C7 10 7 10 7 13 C6.34 13 5.68 13 5 13 C3.35 15.97 1.7 18.94 0 22 C-0.33 22 -0.66 22 -1 22 C-1.1875 19.125 -1.1875 19.125 -1 16 C-0.01 15.34 0.98 14.68 2 14 C2.43640459 8.76314488 1.97222232 4.93055579 0 0 Z " fill="#E8D752" transform="translate(244,240)"/>
<path d="M0 0 C2.95814719 2.61227152 4.71876108 5.66570307 6.6875 9.0625 C7.31011719 10.12597656 7.93273437 11.18945312 8.57421875 12.28515625 C10 15 10 15 10 17 C8.1875 16.9375 8.1875 16.9375 6 16 C4.18721244 12.5039097 3 9.96018245 3 6 C2.01 6 1.02 6 0 6 C0 4.02 0 2.04 0 0 Z " fill="#7AADCD" transform="translate(325,164)"/>
<path d="M0 0 C0.66 0 1.32 0 2 0 C0.66353101 3.58096955 -0.93858019 6.74476164 -2.9375 10 C-3.69353516 11.2375 -3.69353516 11.2375 -4.46484375 12.5 C-4.97144531 13.325 -5.47804687 14.15 -6 15 C-7.00170051 16.66564518 -8.00219096 18.33202071 -9 20 C-10.24546405 17.50907189 -9.7767578 16.58919267 -9 14 C-8.34 14 -7.68 14 -7 14 C-7 12.35 -7 10.7 -7 9 C-6.34 9 -5.68 9 -5 9 C-5 7.68 -5 6.36 -5 5 C-3.68 4.67 -2.36 4.34 -1 4 C-0.67 2.68 -0.34 1.36 0 0 Z " fill="#FAE276" transform="translate(218,302)"/>
<path d="M0 0 C1.19373708 2.88311938 1.00608676 3.98311202 -0.07421875 6.98046875 C-0.87279297 8.56794922 -0.87279297 8.56794922 -1.6875 10.1875 C-2.20699219 11.25355469 -2.72648438 12.31960937 -3.26171875 13.41796875 C-5 16 -5 16 -7.20703125 16.86328125 C-7.79871094 16.90839844 -8.39039063 16.95351562 -9 17 C-7.46933687 11.18348012 -4.32262613 4.32262613 0 0 Z " fill="#F8E06D" transform="translate(174,164)"/>
<path d="M0 0 C0.6875 1.625 0.6875 1.625 1 4 C-0.3125 7 -0.3125 7 -2 10 C-2.391875 10.78375 -2.78375 11.5675 -3.1875 12.375 C-3.455625 12.91125 -3.72375 13.4475 -4 14 C-4.66 14 -5.32 14 -6 14 C-6.33 14.99 -6.66 15.98 -7 17 C-7.66 17 -8.32 17 -9 17 C-7.57997238 13.24069983 -5.87350167 9.77000304 -3.9375 6.25 C-3.14666016 4.80367188 -3.14666016 4.80367188 -2.33984375 3.328125 C-1 1 -1 1 0 0 Z " fill="#F9E06B" transform="translate(123,252)"/>
<path d="M0 0 C1 2 1 2 0.51171875 3.953125 C0.10373047 5.09007813 0.10373047 5.09007813 -0.3125 6.25 C-0.59351563 7.04792969 -0.87453125 7.84585938 -1.1640625 8.66796875 C-1.43992188 9.43753906 -1.71578125 10.20710938 -2 11 C-2.391875 12.175625 -2.78375 13.35125 -3.1875 14.5625 C-3.5896875 15.7690625 -3.5896875 15.7690625 -4 17 C-4.66 16.67 -5.32 16.34 -6 16 C-6.99 16.33 -7.98 16.66 -9 17 C-8.67 15.68 -8.34 14.36 -8 13 C-7.34 13 -6.68 13 -6 13 C-5.938125 12.34 -5.87625 11.68 -5.8125 11 C-4.67863503 6.81342164 -2.40368936 3.57449008 0 0 Z " fill="#E9E180" transform="translate(201,117)"/>
<path d="M0 0 C0.33 0 0.66 0 1 0 C1 5.61 1 11.22 1 17 C1.66 17 2.32 17 3 17 C3.33 21.29 3.66 25.58 4 30 C-0.31924088 23.52113867 -0.27529541 16.52633173 -0.125 9 C-0.11597656 8.12988281 -0.10695313 7.25976562 -0.09765625 6.36328125 C-0.07434619 4.2420658 -0.03848579 2.12099438 0 0 Z " fill="#F9E57E" transform="translate(71,348)"/>
<path d="M0 0 C-4.00355537 4.00355537 -10.34617928 3.94521505 -15.7734375 4.125 C-19.18467156 4.125 -22.58999461 4.08844394 -26 4 C-26 3.67 -26 3.34 -26 3 C-22.7 2.67 -19.4 2.34 -16 2 C-16 1.67 -16 1.34 -16 1 C-10.65097076 0.40801257 -5.39115154 -0.14187241 0 0 Z " fill="#FAE783" transform="translate(144,408)"/>
<path d="M0 0 C0.33 0 0.66 0 1 0 C1.3227506 4.62609198 0.84450614 7.28026121 -2 11 C-2.66 11 -3.32 11 -4 11 C-4 11.99 -4 12.98 -4 14 C-4.66 14 -5.32 14 -6 14 C-4.83803944 8.38385727 -3.5209377 4.54314542 0 0 Z " fill="#F8DA52" transform="translate(94,302)"/>
<path d="M0 0 C0.99 0 1.98 0 3 0 C6.22265625 5.2734375 6.22265625 5.2734375 7 7 C6.67 7.66 6.34 8.32 6 9 C6.99 9.33 7.98 9.66 9 10 C8.34 11.32 7.68 12.64 7 14 C5.82807953 12.04480616 4.6626071 10.0857461 3.5 8.125 C2.8503125 7.03445313 2.200625 5.94390625 1.53125 4.8203125 C0 2 0 2 0 0 Z " fill="#88B7D7" transform="translate(304,343)"/>
<path d="M0 0 C0.99 0 1.98 0 3 0 C5.03435531 3.72965139 6 5.66905042 6 10 C6.99 10.33 7.98 10.66 9 11 C9.75 12.9375 9.75 12.9375 10 15 C9.67 15.66 9.34 16.32 9 17 C7.49462965 14.54481265 5.99555574 12.0861548 4.5 9.625 C4.07074219 8.92632812 3.64148438 8.22765625 3.19921875 7.5078125 C0 2.2265625 0 2.2265625 0 0 Z " fill="#93BFDC" transform="translate(257,262)"/>
<path d="M0 0 C0.33 0.66 0.66 1.32 1 2 C0.3190918 3.67993164 0.3190918 3.67993164 -0.80078125 5.66015625 C-1.20103516 6.37107422 -1.60128906 7.08199219 -2.01367188 7.81445312 C-2.44228516 8.55630859 -2.87089844 9.29816406 -3.3125 10.0625 C-3.72951172 10.80822266 -4.14652344 11.55394531 -4.57617188 12.32226562 C-7.73372024 17.86686012 -7.73372024 17.86686012 -10 19 C-8.95902388 15.13351728 -7.96301592 11.50538557 -6 8 C-5.34 8 -4.68 8 -4 8 C-3.566875 6.8553125 -3.566875 6.8553125 -3.125 5.6875 C-2 3 -2 3 0 0 Z " fill="#F9E888" transform="translate(185,360)"/>
<path d="M0 0 C0.66 0.33 1.32 0.66 2 1 C2.625 3.5625 2.625 3.5625 3 6 C0.04399553 8.49618156 -2.77886965 10.85257977 -6 13 C-5.34215037 9.70319035 -4.10579427 7.15882078 -2.4375 4.25 C-1.98246094 3.45078125 -1.52742187 2.6515625 -1.05859375 1.828125 C-0.53458984 0.92320312 -0.53458984 0.92320312 0 0 Z " fill="#FAE06D" transform="translate(138,225)"/>
<path d="M0 0 C0 0.99 0 1.98 0 3 C-0.99 3 -1.98 3 -3 3 C-3 3.99 -3 4.98 -3 6 C-6.33333333 7.66666667 -9.66666667 9.33333333 -13 11 C-11.52841629 7.38502261 -9.58537669 5.59408489 -6.5 3.25 C-5.7059375 2.63640625 -4.911875 2.0228125 -4.09375 1.390625 C-2 0 -2 0 0 0 Z " fill="#A4C881" transform="translate(223,95)"/>
<path d="M0 0 C0.33 0.66 0.66 1.32 1 2 C-0.50378678 6.13541365 -1.93428013 8.93428013 -5 12 C-6.13378131 14.29344804 -7.05610098 16.61777867 -8 19 C-8.66 19 -9.32 19 -10 19 C-8.59478925 15.28429849 -6.91641021 11.85328453 -5 8.375 C-4.484375 7.43398437 -3.96875 6.49296875 -3.4375 5.5234375 C-2.3640955 3.63914591 -1.20291339 1.80437008 0 0 Z " fill="#FAE98E" transform="translate(164,181)"/>
<path d="M0 0 C2.28684023 2.15232021 4.05036669 4.36056945 5.75 7 C6.19859375 7.680625 6.6471875 8.36125 7.109375 9.0625 C8 11 8 11 7 14 C6.566875 13.505 6.13375 13.01 5.6875 12.5 C4.00259517 10.66781808 4.00259517 10.66781808 1 11 C1.33 8.69 1.66 6.38 2 4 C1.34 4 0.68 4 0 4 C0 2.68 0 1.36 0 0 Z " fill="#91BEDD" transform="translate(335,181)"/>
<path d="M0 0 C3.28426103 1.05565533 4.57151556 2.61660352 6.25 5.5 C8 9 8 9 8 11 C6.68 10.34 5.36 9.68 4 9 C4 8.34 4 7.68 4 7 C3.01 7 2.02 7 1 7 C0.67 4.69 0.34 2.38 0 0 Z " fill="#75AACC" transform="translate(316,151)"/>
<path d="M0 0 C1.53271273 4.58798777 0.02911182 6.77944742 -2 11 C-2.66 11 -3.32 11 -4 11 C-4 11.66 -4 12.32 -4 13 C-4.99 13.33 -5.98 13.66 -7 14 C-5.23570801 9.02790438 -2.6060834 4.56561939 0 0 Z " fill="#F9E06D" transform="translate(186,143)"/>
<path d="M0 0 C0.99 0 1.98 0 3 0 C3 1.32 3 2.64 3 4 C3.99 4.33 4.98 4.66 6 5 C6.73046875 7.06640625 6.73046875 7.06640625 7.1875 9.5625 C7.34605469 10.38878906 7.50460937 11.21507812 7.66796875 12.06640625 C7.77753906 12.70449219 7.88710938 13.34257812 8 14 C5.70982814 11.85086512 3.98684411 9.65481588 2.3125 7 C1.87550781 6.319375 1.43851562 5.63875 0.98828125 4.9375 C0 3 0 3 0 0 Z " fill="#93BFDB" transform="translate(317,365)"/>
<path d="M0 0 C2.65262179 1.32631089 3.21099749 2.85343108 4.625 5.4375 C5.07101562 6.24058594 5.51703125 7.04367188 5.9765625 7.87109375 C7 10 7 10 7 12 C5.68 12 4.36 12 3 12 C2.690625 11.195625 2.38125 10.39125 2.0625 9.5625 C1.23664655 7.10919595 1.23664655 7.10919595 0 6 C-0.04080783 4.00041636 -0.04254356 1.99954746 0 0 Z " fill="#A0C6A9" transform="translate(298,117)"/>
<path d="M0 0 C2.97 0.495 2.97 0.495 6 1 C6 2.65 6 4.3 6 6 C7.32 6.33 8.64 6.66 10 7 C10 7.99 10 8.98 10 10 C4.98343041 8.5666944 2.98547118 6.09436048 0 2 C0 1.34 0 0.68 0 0 Z " fill="#FADE67" transform="translate(82,390)"/>
<path d="M0 0 C0.33 0.66 0.66 1.32 1 2 C-0.60197696 6.24523895 -2.39508372 10.26251142 -5 14 C-5.66 14 -6.32 14 -7 14 C-7.33 14.66 -7.66 15.32 -8 16 C-7.32599282 12.08885974 -5.45743967 9.12880818 -3.4375 5.75 C-2.79683594 4.67234375 -2.15617187 3.5946875 -1.49609375 2.484375 C-1.00238281 1.66453125 -0.50867188 0.8446875 0 0 Z " fill="#F9E886" transform="translate(88,312)"/>
<path d="M0 0 C0.33 0.66 0.66 1.32 1 2 C0.67 2.99 0.34 3.98 0 5 C-0.99 5 -1.98 5 -3 5 C-3.33 8.63 -3.66 12.26 -4 16 C-4.99 15.01 -5.98 14.02 -7 13 C-7 11.68 -7 10.36 -7 9 C-6.34 9 -5.68 9 -5 9 C-4.67 7.35 -4.34 5.7 -4 4 C-3.01 3.67 -2.02 3.34 -1 3 C-0.67 2.01 -0.34 1.02 0 0 Z " fill="#4F969B" transform="translate(257,237)"/>
<path d="M0 0 C0.33 0.99 0.66 1.98 1 3 C0.34 3 -0.32 3 -1 3 C-1.061875 3.94875 -1.12375 4.8975 -1.1875 5.875 C-1.455625 6.90625 -1.72375 7.9375 -2 9 C-4.5625 10.375 -4.5625 10.375 -7 11 C-3.57894737 1.78947368 -3.57894737 1.78947368 0 0 Z " fill="#AFD090" transform="translate(209,106)"/>
<path d="M0 0 C0.33 1.32 0.66 2.64 1 4 C0.34 4 -0.32 4 -1 4 C-1.11214844 4.57234375 -1.22429687 5.1446875 -1.33984375 5.734375 C-2.07223034 8.24789112 -3.13854853 10.05930543 -4.5625 12.25 C-5.01753906 12.95640625 -5.47257812 13.6628125 -5.94140625 14.390625 C-6.29074219 14.92171875 -6.64007813 15.4528125 -7 16 C-7.6875 14.1875 -7.6875 14.1875 -8 12 C-6.6953125 10.5078125 -6.6953125 10.5078125 -5 9 C-3.83874274 7.00070306 -3.83874274 7.00070306 -2.875 4.875 C-1.08333333 1.08333333 -1.08333333 1.08333333 0 0 Z " fill="#47929E" transform="translate(266,221)"/>
<path d="M0 0 C0.66 0 1.32 0 2 0 C6 5.29411765 6 5.29411765 6 9 C6.99 9 7.98 9 9 9 C9 10.98 9 12.96 9 15 C4.95808535 10.50898372 2.56325559 5.41015011 0 0 Z " fill="#8CB12C" transform="translate(203,167)"/>
<path d="M0 0 C6.02770138 0.47587116 10.76678289 3.19722957 16 6 C13.30234372 7.34882814 11.84835666 6.80338265 9 6 C8.67 5.34 8.34 4.68 8 4 C5.67843403 3.59270772 3.3431213 3.25561323 1 3 C0.67 2.01 0.34 1.02 0 0 Z " fill="#B8D79B" transform="translate(264,90)"/>
<path d="M0 0 C1.9375 0.625 1.9375 0.625 4 2 C4.75 5.125 4.75 5.125 5 8 C5.99 8.33 6.98 8.66 8 9 C8 10.65 8 12.3 8 14 C0 4.57142857 0 4.57142857 0 0 Z " fill="#96C1DD" transform="translate(267,279)"/>
<path d="M0 0 C0.33 0.66 0.66 1.32 1 2 C1.66 2 2.32 2 3 2 C2.67 8.27 2.34 14.54 2 21 C1.67 21 1.34 21 1 21 C0.67 14.07 0.34 7.14 0 0 Z " fill="#559B8B" transform="translate(302,127)"/>
<path d="M0 0 C0.33 0 0.66 0 1 0 C1 1.98 1 3.96 1 6 C0.01 6.33 -0.98 6.66 -2 7 C-2.69937532 8.31647119 -3.36729133 9.65022151 -4 11 C-4.99 11.495 -4.99 11.495 -6 12 C-4.68315519 7.39104317 -2.84801255 3.85859765 0 0 Z " fill="#F9E477" transform="translate(146,212)"/>
<path d="M0 0 C2.31 0 4.62 0 7 0 C4.6499811 2.72107452 2.44325025 3.96702492 -1 5 C-1.99 4.67 -2.98 4.34 -4 4 C-3.67 3.34 -3.34 2.68 -3 2 C-2.01 2 -1.02 2 0 2 C0 1.34 0 0.68 0 0 Z " fill="#88B8D6" transform="translate(393,405)"/>
<path d="M0 0 C3.28465896 2.79196011 5.01321958 6.23196817 7 10 C7 10.66 7 11.32 7 12 C5 12 5 12 3.375 10.8125 C1.57850533 8.44439338 1.76478155 6.90102749 2 4 C1.34 4 0.68 4 0 4 C0 2.68 0 1.36 0 0 Z " fill="#93C0DC" transform="translate(383,264)"/>
<path d="M0 0 C4.42857143 5.14285714 4.42857143 5.14285714 5 9 C3.35 8.67 1.7 8.34 0 8 C0 5.36 0 2.72 0 0 Z " fill="#83B6D8" transform="translate(355,215)"/>
<path d="M0 0 C2.6244603 2.3745117 4.50692877 4.77810946 6 8 C5.1875 10.3125 5.1875 10.3125 4 12 C1.24331998 8.04476345 0.4682121 4.77576339 0 0 Z " fill="#8DBDDB" transform="translate(411,312)"/>
<path d="M0 0 C1.56073255 2.34109882 2.86373867 4.56333403 4.125 7.0625 C4.47820312 7.75472656 4.83140625 8.44695312 5.1953125 9.16015625 C6 11 6 11 6 13 C3 12 3 12 1.3125 9.3125 C-0.03558623 5.91018714 -0.25833766 3.61672729 0 0 Z " fill="#D7C91D" transform="translate(198,157)"/>
<path d="M0 0 C0.99 0 1.98 0 3 0 C3 0.66 3 1.32 3 2 C3.763125 1.896875 4.52625 1.79375 5.3125 1.6875 C6.199375 1.790625 7.08625 1.89375 8 2 C9.8125 4.5 9.8125 4.5 11 7 C6.96678237 5.78065514 3.45730521 4.44045073 0 2 C0 1.34 0 0.68 0 0 Z " fill="#90BEDB" transform="translate(342,400)"/>
<path d="M0 0 C0.99 0.33 1.98 0.66 3 1 C2.39816251 3.02045442 1.72693904 5.02111039 1 7 C0.01 7.495 0.01 7.495 -1 8 C-1.625 5.125 -1.625 5.125 -2 2 C-1.34 1.34 -0.68 0.68 0 0 Z " fill="#418ABF" transform="translate(420,379)"/>
<path d="M0 0 C3.86107457 2.57404971 3.94319692 4.61020259 5 9 C3.68 9 2.36 9 1 9 C-0.4783226 6.04335481 -0.06032783 3.25770263 0 0 Z " fill="#83B8D7" transform="translate(420,328)"/>
<path d="M0 0 C0.66 0.33 1.32 0.66 2 1 C2 1.99 2 2.98 2 4 C2.66 4.33 3.32 4.66 4 5 C3.01 5.66 2.02 6.32 1 7 C0.42251197 8.96361864 0.42251197 8.96361864 0.3125 11.125 C0.209375 12.40375 0.10625 13.6825 0 15 C-0.33 15 -0.66 15 -1 15 C-1.18451025 4.44191344 -1.18451025 4.44191344 0 0 Z " fill="#85B237" transform="translate(199,123)"/>
<path d="M0 0 C0.103125 0.639375 0.20625 1.27875 0.3125 1.9375 C0.539375 2.618125 0.76625 3.29875 1 4 C1.99 4.33 2.98 4.66 4 5 C5.1875 8.5625 5.1875 8.5625 6 12 C5.34 12 4.68 12 4 12 C3.13353333 10.56988027 2.28218171 9.13059381 1.4375 7.6875 C0.72400391 6.48673828 0.72400391 6.48673828 -0.00390625 5.26171875 C-1 3 -1 3 0 0 Z " fill="#A4CAE3" transform="translate(326,378)"/>
<path d="M0 0 C2.61500768 2.36595933 4.38999603 4.86049226 6 8 C5.67 8.66 5.34 9.32 5 10 C4.34 9.67 3.68 9.34 3 9 C3 8.01 3 7.02 3 6 C2.01 6 1.02 6 0 6 C0 4.02 0 2.04 0 0 Z " fill="#8FBEDA" transform="translate(325,164)"/>
<path d="M0 0 C0.99 0.33 1.98 0.66 3 1 C1.41641358 4.16717283 0.54736301 5.73268318 -2.6875 7.3125 C-3.450625 7.539375 -4.21375 7.76625 -5 8 C-5 7.01 -5 6.02 -5 5 C-3.68 5 -2.36 5 -1 5 C-0.67 3.35 -0.34 1.7 0 0 Z " fill="#8CB9D4" transform="translate(413,392)"/>
<path d="M0 0 C2.475 0.495 2.475 0.495 5 1 C5 3.31 5 5.62 5 8 C2.27573689 5.64722731 1.1858237 3.37503669 0 0 Z " fill="#85B6D7" transform="translate(312,357)"/>
<path d="M0 0 C3.50015029 2.33343353 4.40382422 4.16917814 6 8 C5.67 8.66 5.34 9.32 5 10 C4.34 9.67 3.68 9.34 3 9 C3 8.34 3 7.68 3 7 C2.34 7 1.68 7 1 7 C0.67 4.69 0.34 2.38 0 0 Z " fill="#93BFDA" transform="translate(395,285)"/>
<path d="M0 0 C0.33 0 0.66 0 1 0 C1.33 3.3 1.66 6.6 2 10 C-1.08089673 7.22719294 -2.68775452 4.93673644 -4 1 C-3.01 1.33 -2.02 1.66 -1 2 C-0.67 1.34 -0.34 0.68 0 0 Z " fill="#8DB32F" transform="translate(218,186)"/>
<path d="M0 0 C2.5 1.125 2.5 1.125 5 3 C5.3125 6.1875 5.3125 6.1875 5 9 C2.9754262 7.06745228 1.57894208 5.36841312 0 3 C0 2.01 0 1.02 0 0 Z " fill="#93C1DD" transform="translate(280,301)"/>
<path d="M0 0 C0.99 0 1.98 0 3 0 C4.85776765 3.13498292 5.20140476 5.37471432 5 9 C0.57142857 3.85714286 0.57142857 3.85714286 0 0 Z " fill="#8EBCDA" transform="translate(252,253)"/>
<path d="M0 0 C3.60654039 2.40436026 3.85452932 3.94679607 5 8 C2.525 7.01 2.525 7.01 0 6 C0 4.02 0 2.04 0 0 Z " fill="#98C2DD" transform="translate(365,233)"/>
<path d="M0 0 C-6.45 4.09326923 -6.45 4.09326923 -9.234375 3.62109375 C-9.81703125 3.41613281 -10.3996875 3.21117188 -11 3 C-9.73581754 2.30034557 -8.46334598 1.61565237 -7.1875 0.9375 C-6.47980469 0.55464844 -5.77210938 0.17179687 -5.04296875 -0.22265625 C-3 -1 -3 -1 0 0 Z " fill="#C5DFAC" transform="translate(235,91)"/>
<path d="M0 0 C2.5 1.1875 2.5 1.1875 5 3 C5.3125 5.6875 5.3125 5.6875 5 8 C1.39345961 5.59563974 1.14547068 4.05320393 0 0 Z " fill="#94C3DE" transform="translate(275,293)"/>
<path d="M0 0 C0.33 0.66 0.66 1.32 1 2 C0.22265625 3.7265625 0.22265625 3.7265625 -0.9375 5.625 C-1.618125 6.73875 -2.29875 7.8525 -3 9 C-3.33 9 -3.66 9 -4 9 C-4.25 6.1875 -4.25 6.1875 -4 3 C-2 1.125 -2 1.125 0 0 Z " fill="#F9E372" transform="translate(247,253)"/>
<path d="M0 0 C0 3 0 3 -1 6 C-1.66 6 -2.32 6 -3 6 C-3.33 6.99 -3.66 7.98 -4 9 C-4.33 7.68 -4.66 6.36 -5 5 C-4.01 4.67 -3.02 4.34 -2 4 C-0.79117904 1.99983534 -0.79117904 1.99983534 0 0 Z " fill="#4892A1" transform="translate(272,212)"/>
<path d="M0 0 C0.99 0 1.98 0 3 0 C1.25 5.75 1.25 5.75 -1 8 C-1.625 5.125 -1.625 5.125 -2 2 C-1.34 1.34 -0.68 0.68 0 0 Z " fill="#6BB05C" transform="translate(284,184)"/>
<path d="M0 0 C0.66 0 1.32 0 2 0 C2.33 1.98 2.66 3.96 3 6 C1.68 6 0.36 6 -1 6 C-0.67 4.02 -0.34 2.04 0 0 Z " fill="#76ADD0" transform="translate(305,130)"/>
<path d="M0 0 C0 0.99 0 1.98 0 3 C-1.11375 3.433125 -1.11375 3.433125 -2.25 3.875 C-4.56739797 4.82302644 -6.77917115 5.84845911 -9 7 C-3.65789474 0 -3.65789474 0 0 0 Z " fill="#C4DEAD" transform="translate(223,95)"/>
<path d="M0 0 C-0.33 0.99 -0.66 1.98 -1 3 C-2.65 3.33 -4.3 3.66 -6 4 C-6 3.01 -6 2.02 -6 1 C-3 0 -3 0 0 0 Z " fill="#F6DD59" transform="translate(150,404)"/>
<path d="M0 0 C0.6875 1.6875 0.6875 1.6875 1 4 C-0.4375 6.75 -0.4375 6.75 -2 9 C-2.33 7.68 -2.66 6.36 -3 5 C-2.34 5 -1.68 5 -1 5 C-0.67 3.35 -0.34 1.7 0 0 Z " fill="#49959E" transform="translate(279,197)"/>
<path d="M0 0 C2.79872437 2.52788007 4.45773019 4.20411134 5 8 C2 7 2 7 0.8125 5.125 C0 3 0 3 0 0 Z " fill="#DFCC1B" transform="translate(207,176)"/>
</svg>
