<?xml version="1.0" encoding="UTF-8"?>
<svg version="1.1" xmlns="http://www.w3.org/2000/svg" width="251" height="228">
<path d="M0 0 C5.18511966 5.01167376 8.19467524 11.14904555 11.5234375 17.45703125 C14.84348417 23.72394105 18.48477259 29.79026572 22.125 35.875 C23.51613547 38.20725681 24.90514871 40.54076894 26.29296875 42.875 C26.63955032 43.45791306 26.9861319 44.04082611 27.34321594 44.6414032 C30.93074153 50.68696765 34.43751944 56.77840911 37.9375 62.875 C43.03495101 71.75040384 48.204485 80.57885229 53.4375 89.375 C59.33975896 99.29814606 65.15730736 109.26596778 70.90942383 119.27685547 C74.03542272 124.71608524 77.17495993 130.14644006 80.34765625 135.55859375 C80.98171387 136.64052002 81.61577148 137.72244629 82.26904297 138.8371582 C83.46773954 140.87992512 84.66844428 142.92151559 85.87158203 144.96166992 C87.41273374 147.58906058 88.93377739 150.22603386 90.4375 152.875 C90.85402832 153.60444824 91.27055664 154.33389648 91.69970703 155.08544922 C95.6076438 162.32423054 95.70381149 169.82329748 93.70703125 177.7890625 C90.00595221 187.78952914 83.73753825 192.99376446 74.4375 197.875 C67.14680684 200.76191877 59.11678986 200.5212903 51.76171875 197.93359375 C41.06921118 193.01731182 35.94125123 184.9923274 30.375 174.9375 C29.38824922 173.19105802 28.40147867 171.44462665 27.41322327 169.69903564 C26.40521848 167.91614427 25.40171481 166.13076979 24.3984375 164.34521484 C21.44340978 159.11578706 18.41159624 153.93234881 15.375 148.75 C14.21725568 146.76834147 13.05970359 144.78657061 11.90234375 142.8046875 C11.33112793 141.82725586 10.75991211 140.84982422 10.17138672 139.84277344 C8.42687312 136.85681071 6.68384378 133.86998713 4.94140625 130.8828125 C4.36221436 129.88991211 3.78302246 128.89701172 3.1862793 127.87402344 C2.02970365 125.8905842 0.87360844 123.90686472 -0.28198242 121.92285156 C-3.35951471 116.64111132 -6.44906098 111.36684019 -9.5546875 106.1015625 C-10.204375 104.99683594 -10.8540625 103.89210938 -11.5234375 102.75390625 C-12.77772371 100.6216197 -14.03541536 98.49133186 -15.296875 96.36328125 C-15.85632813 95.41066406 -16.41578125 94.45804687 -16.9921875 93.4765625 C-17.48960449 92.63432129 -17.98702148 91.79208008 -18.49951172 90.92431641 C-19.5625 88.875 -19.5625 88.875 -19.5625 86.875 C-20.2225 86.875 -20.8825 86.875 -21.5625 86.875 C-21.92601563 87.87080078 -21.92601563 87.87080078 -22.296875 88.88671875 C-23.88731947 92.64193485 -25.81858946 96.13363606 -27.8125 99.6875 C-28.24796143 100.46738281 -28.68342285 101.24726562 -29.13208008 102.05078125 C-33.93495415 110.60853842 -38.90043988 119.07117718 -43.859375 127.5390625 C-47.59885049 133.92782776 -51.3027343 140.3367403 -55 146.75 C-55.61713867 147.81726318 -56.23427734 148.88452637 -56.87011719 149.98413086 C-59.79106912 155.04041246 -62.69848216 160.10314042 -65.55821228 165.1942749 C-66.55562431 166.96823986 -67.55751556 168.73959945 -68.56079102 170.51025391 C-69.81243009 172.7223286 -71.05573784 174.93914787 -72.28881836 177.16162109 C-78.19852074 187.56687997 -84.23809196 195.93045009 -95.9375 199.625 C-106.70118287 200.65011265 -115.11634796 199.47685075 -123.7109375 192.54296875 C-131.19677008 185.79940227 -135.01578078 178.84567006 -135.8125 168.6875 C-135.19486137 159.26851085 -131.14133729 151.80794725 -126.3125 143.875 C-125.04475052 141.74788576 -123.77785231 139.62026399 -122.51171875 137.4921875 C-121.85864746 136.40131836 -121.20557617 135.31044922 -120.53271484 134.18652344 C-117.34154742 128.82283137 -114.23465329 123.41122204 -111.125 118 C-109.86607637 115.81499414 -108.60696085 113.63009882 -107.34765625 111.4453125 C-106.72262207 110.36024414 -106.09758789 109.27517578 -105.45361328 108.15722656 C-101.70221976 101.64628743 -97.94559006 95.13836806 -94.18994141 88.62988281 C-91.05067754 83.18914664 -87.91268503 77.74768523 -84.77734375 72.3046875 C-78.14118947 60.78716834 -71.50344841 49.27057001 -64.77246094 37.80810547 C-61.75958424 32.67325648 -58.7930264 27.51852876 -55.890625 22.3203125 C-55.280979 21.24152832 -54.67133301 20.16274414 -54.04321289 19.05126953 C-52.88808676 17.00522584 -51.74560132 14.95196779 -50.61889648 12.89013672 C-45.02843972 3.05439766 -38.13315342 -3.64402138 -27.1875 -6.8125 C-17.03438343 -8.02120435 -8.28060369 -6.39665681 0 0 Z M-36 14.5 C-39.18172688 19.33622486 -39.28287928 24.26362458 -38.5625 29.875 C-37.23476879 33.45061745 -35.40441539 36.61526895 -33.4375 39.875 C-32.93484619 40.74350586 -32.43219238 41.61201172 -31.91430664 42.50683594 C-30.92485553 44.2099764 -29.92624237 45.90783505 -28.91748047 47.59960938 C-27.77544544 49.51740514 -26.66161793 51.445911 -25.56640625 53.390625 C-23.69987298 56.72212724 -23.69987298 56.72212724 -21.5625 59.875 C-20.9025 59.875 -20.2425 59.875 -19.5625 59.875 C-17.46139584 56.24630542 -15.36183321 52.61672471 -13.26367188 48.98632812 C-12.55022423 47.7523615 -11.83636169 46.51863466 -11.12207031 45.28515625 C-10.09329861 43.50844746 -9.06603987 41.73087141 -8.0390625 39.953125 C-7.42111816 38.88481445 -6.80317383 37.81650391 -6.16650391 36.71582031 C-2.81347836 30.77734158 -1.70412473 26.75259942 -2.5625 19.875 C-4.52919648 14.25131114 -8.35782892 10.73317062 -13.421875 7.796875 C-22.24318473 3.99791679 -29.95712532 7.99228881 -36 14.5 Z M-49.5625 37.875 C-50.12626343 38.85218994 -50.12626343 38.85218994 -50.70141602 39.84912109 C-51.50083618 41.23478271 -51.50083618 41.23478271 -52.31640625 42.6484375 C-52.91590088 43.68758301 -53.51539551 44.72672852 -54.13305664 45.79736328 C-55.47982423 48.13171642 -56.82665607 50.46603235 -58.17358398 52.80029297 C-61.58627298 58.71478489 -64.99789406 64.62988441 -68.40625 70.546875 C-74.4320535 81.00506361 -80.47337047 91.45353419 -86.5625 101.875 C-96.2714385 118.49319866 -105.88201047 135.16812755 -115.4375 151.875 C-116.19667725 153.20180786 -116.19667725 153.20180786 -116.97119141 154.55541992 C-117.43187012 155.36213135 -117.89254883 156.16884277 -118.3671875 157 C-118.97022705 158.05574219 -118.97022705 158.05574219 -119.58544922 159.1328125 C-122.27699101 163.9321234 -122.19991104 168.44601627 -121.5625 173.875 C-119.87937188 178.44133413 -117.30143994 181.71226708 -113.1875 184.3125 C-106.98830518 186.98456673 -102.17110439 187.55590215 -95.87524414 185.07592773 C-87.6197719 180.78914763 -83.30336474 170.65429599 -79 162.875 C-77.94364509 160.99154101 -76.8838693 159.11003131 -75.82411194 157.22848511 C-75.10761211 155.95561465 -74.39222999 154.68211439 -73.67796326 153.4079895 C-70.35412553 147.48150923 -66.9383479 141.61073088 -63.5 135.75 C-57.99984615 126.35494791 -52.54232024 116.93620915 -47.13256836 107.48876953 C-44.05622737 102.13118345 -40.93291645 96.81424895 -37.69140625 91.5546875 C-36.77500366 90.05446045 -36.77500366 90.05446045 -35.84008789 88.52392578 C-34.6855548 86.6410902 -33.51747245 84.76647193 -32.33374023 82.90185547 C-31.82141846 82.06283691 -31.30909668 81.22381836 -30.78125 80.359375 C-30.0996582 79.27221191 -30.0996582 79.27221191 -29.40429688 78.16308594 C-28.24721012 75.01801137 -28.70555147 73.08875088 -29.5625 69.875 C-30.74090756 67.29361117 -30.74090756 67.29361117 -32.29296875 64.828125 C-33.12731445 63.4359375 -33.12731445 63.4359375 -33.97851562 62.015625 C-34.56310547 61.06171875 -35.14769531 60.1078125 -35.75 59.125 C-36.31525391 58.1865625 -36.88050781 57.248125 -37.46289062 56.28125 C-38.59317748 54.40650158 -39.72838269 52.53470905 -40.86865234 50.66601562 C-43.08039579 47.02164389 -45.23850806 43.34613361 -47.3918457 39.66699219 C-47.77816162 39.07563477 -48.16447754 38.48427734 -48.5625 37.875 C-48.8925 37.875 -49.2225 37.875 -49.5625 37.875 Z M7.4375 37.875 C5.07303945 41.36662805 2.93853146 45.00528497 0.77929688 48.62646484 C-0.18606415 50.24418229 -1.15676416 51.8587181 -2.13085938 53.47119141 C-3.81182885 56.26311813 -5.47038732 59.0673861 -7.125 61.875 C-7.67389893 62.7827417 -8.22279785 63.6904834 -8.78833008 64.62573242 C-9.54472778 65.92474487 -9.54472778 65.92474487 -10.31640625 67.25 C-10.77345947 68.02085938 -11.2305127 68.79171875 -11.70141602 69.5859375 C-12.80350996 72.5156888 -12.51584431 73.91176412 -11.5625 76.875 C-10.33330857 79.46465458 -10.33330857 79.46465458 -8.74609375 82.1015625 C-8.15505859 83.11927734 -7.56402344 84.13699219 -6.95507812 85.18554688 C-6.30990234 86.27931641 -5.66472656 87.37308594 -5 88.5 C-4.3230258 89.6591889 -3.64660377 90.81870043 -2.97070312 91.97851562 C2.45184679 101.2660086 7.94911894 110.51002688 13.44677734 119.75317383 C18.06725257 127.53009467 22.6164591 135.34521581 27.125 143.1875 C31.92970951 151.53771452 36.74791648 159.87929546 41.625 168.1875 C42.15375732 169.0947583 42.68251465 170.0020166 43.22729492 170.93676758 C48.53549995 180.33952056 48.53549995 180.33952056 57.4375 185.875 C63.38785944 186.79896886 68.15675273 186.53522565 73.375 183.375 C78.8572632 179.18961627 80.94462943 174.83222343 82.0625 168.125 C81.50248728 158.08850305 73.04048471 147.61442639 68 139.25 C66.57159476 136.86354249 65.14685454 134.47490753 63.72265625 132.0859375 C63.36334015 131.4838446 63.00402405 130.88175171 62.63381958 130.26141357 C59.00440174 124.16937746 55.46625744 118.02580396 51.9375 111.875 C46.19251968 101.87142342 40.3417491 91.93526587 34.44213867 82.0222168 C29.00950373 72.87864563 23.67978382 63.67968289 18.39648438 54.44921875 C15.18604555 48.85153055 11.97438492 43.27408393 8.4375 37.875 C8.1075 37.875 7.7775 37.875 7.4375 37.875 Z " fill="#A89A65" transform="translate(145.5625,17.125)"/>
<path d="M0 0 C0.66 0.66 1.32 1.32 2 2 C1.34 3.65 0.68 5.3 0 7 C-0.66 7 -1.32 7 -2 7 C-2.20625 7.804375 -2.4125 8.60875 -2.625 9.4375 C-5.05862772 15.74280817 -8.91709307 21.50358233 -14 26 C-12.65788025 22.444218 -11.07755303 19.20894833 -9.1796875 15.91796875 C-8.64472656 14.98662109 -8.10976562 14.05527344 -7.55859375 13.09570312 C-7.00300781 12.13599609 -6.44742188 11.17628906 -5.875 10.1875 C-5.31167969 9.20845703 -4.74835938 8.22941406 -4.16796875 7.22070312 C-2.78155585 4.81210445 -1.39214945 2.40528605 0 0 Z " fill="#A09569" transform="translate(110,103)"/>
<path d="M0 0 C1.25 1.5 1.25 1.5 3 4 C3.35964844 4.51304687 3.71929687 5.02609375 4.08984375 5.5546875 C7.98839 12.01989232 7.37109669 18.66053212 7 26 C6.67 26 6.34 26 6 26 C5.66468585 24.04200486 5.33180857 22.08359226 5 20.125 C4.7215625 18.48917969 4.7215625 18.48917969 4.4375 16.8203125 C3.96372417 13.76615045 4 11.11740609 4 8 C3.01 7.67 2.02 7.34 1 7 C0.67 4.69 0.34 2.38 0 0 Z " fill="#A0946B" transform="translate(233,166)"/>
<path d="M0 0 C0.66 0.66 1.32 1.32 2 2 C0.73433762 4.10743309 -0.53723838 6.21088672 -1.8125 8.3125 C-2.16892578 8.90740234 -2.52535156 9.50230469 -2.89257812 10.11523438 C-4.6855284 13.0596206 -6.39174126 15.72085908 -9 18 C-7.16797669 11.56557667 -4.84640967 4.84640967 0 0 Z " fill="#9E9567" transform="translate(152,53)"/>
<path d="M0 0 C0.66 0.33 1.32 0.66 2 1 C-5.20969846 9.98012737 -5.20969846 9.98012737 -11 12 C-13 11 -13 11 -14 9 C-12.72942818 8.52014033 -11.45853152 8.0411407 -10.1875 7.5625 C-9.47980469 7.29566406 -8.77210937 7.02882812 -8.04296875 6.75390625 C-6.37327604 6.13774814 -4.68842296 5.56280765 -3 5 C-3 4.34 -3 3.68 -3 3 C-1.5 1.375 -1.5 1.375 0 0 Z " fill="#A09668" transform="translate(65,203)"/>
<path d="M0 0 C2.64752004 2.57784846 4.94432065 4.91648098 7 8 C7 8.99 7 9.98 7 11 C7.66 11 8.32 11 9 11 C9 11.66 9 12.32 9 13 C9.99 13.33 10.98 13.66 12 14 C11.67 14.99 11.34 15.98 11 17 C0 5.10393258 0 5.10393258 0 0 Z " fill="#A2966A" transform="translate(178,193)"/>
<path d="M0 0 C0.66 0.66 1.32 1.32 2 2 C0.55041382 4.5054576 -0.90898798 7.00418199 -2.375 9.5 C-2.7875 10.21542969 -3.2 10.93085937 -3.625 11.66796875 C-4.69451438 13.47924311 -5.8419038 15.24404186 -7 17 C-7.66 17 -8.32 17 -9 17 C-7.51481201 12.95698825 -5.57122002 9.38853744 -3.375 5.6875 C-2.74335938 4.61886719 -2.11171875 3.55023438 -1.4609375 2.44921875 C-0.97882813 1.64097656 -0.49671875 0.83273438 0 0 Z " fill="#A1966A" transform="translate(135,60)"/>
<path d="M0 0 C1 3 1 3 0.0625 5.1875 C-0.288125 5.785625 -0.63875 6.38375 -1 7 C-1.66 7 -2.32 7 -3 7 C-3.061875 7.721875 -3.12375 8.44375 -3.1875 9.1875 C-4.24456647 12.84657625 -6.20550071 14.49211602 -9 17 C-7.51481201 12.95698825 -5.57122002 9.38853744 -3.375 5.6875 C-2.74335937 4.61886719 -2.11171875 3.55023438 -1.4609375 2.44921875 C-0.97882812 1.64097656 -0.49671875 0.83273438 0 0 Z " fill="#A09567" transform="translate(47,114)"/>
<path d="M0 0 C0.99 0.33 1.98 0.66 3 1 C1.83917375 4.48247874 1.09067524 4.88819244 -1.9375 6.75 C-2.64777344 7.19859375 -3.35804688 7.6471875 -4.08984375 8.109375 C-4.72019531 8.40328125 -5.35054687 8.6971875 -6 9 C-6.66 8.67 -7.32 8.34 -8 8 C-7 6 -7 6 -4.5625 4.5625 C-1.7644028 3.10335955 -1.7644028 3.10335955 0 0 Z " fill="#A09769" transform="translate(229,204)"/>
<path d="M0 0 C0.84119973 2.39957614 1.11193544 3.64922558 0.328125 6.10546875 C-0.02765625 6.79253906 -0.3834375 7.47960937 -0.75 8.1875 C-1.26820312 9.22970703 -1.26820312 9.22970703 -1.796875 10.29296875 C-3 12 -3 12 -6 13 C-4.58707905 8.1725201 -2.57025846 4.2837641 0 0 Z " fill="#A2956C" transform="translate(67,177)"/>
<path d="M0 0 C7 8.44827586 7 8.44827586 7 12 C6.01 11.67 5.02 11.34 4 11 C3.67 9.35 3.34 7.7 3 6 C2.34 6 1.68 6 1 6 C0.67 4.02 0.34 2.04 0 0 Z " fill="#A0966B" transform="translate(137,99)"/>
<path d="M0 0 C2.61500768 2.36595933 4.38999603 4.86049226 6 8 C5.67 8.66 5.34 9.32 5 10 C4.731875 9.360625 4.46375 8.72125 4.1875 8.0625 C3.11332248 5.66868314 3.11332248 5.66868314 0 5 C-0.33 4.34 -0.66 3.68 -1 3 C-0.67 2.01 -0.34 1.02 0 0 Z " fill="#A0956B" transform="translate(201,112)"/>
<path d="M0 0 C1.32 0.66 2.64 1.32 4 2 C4 2.66 4 3.32 4 4 C3.01 4.33 2.02 4.66 1 5 C0.34 5.66 -0.32 6.32 -1 7 C-1 6.34 -1 5.68 -1 5 C-1.66 4.67 -2.32 4.34 -3 4 C-2.01 2.68 -1.02 1.36 0 0 Z " fill="#AF9F60" transform="translate(88,60)"/>
<path d="M0 0 C0.66 0 1.32 0 2 0 C1.35494404 3.48330216 0.01782732 6.09432866 -2 9 C-2.66 9 -3.32 9 -4 9 C-3.35494404 5.51669784 -2.01782732 2.90567134 0 0 Z " fill="#9E946D" transform="translate(59,191)"/>
<path d="M0 0 C0.99 0.33 1.98 0.66 3 1 C2.67 4.3 2.34 7.6 2 11 C1.67 11 1.34 11 1 11 C0.67 7.37 0.34 3.74 0 0 Z " fill="#99936B" transform="translate(10,183)"/>
<path d="M0 0 C0 0.99 0 1.98 0 3 C-2.25 4.8125 -2.25 4.8125 -5 6 C-7.3125 5.1875 -7.3125 5.1875 -9 4 C-8.43410156 3.79503906 -7.86820313 3.59007812 -7.28515625 3.37890625 C-6.55167969 3.10949219 -5.81820312 2.84007812 -5.0625 2.5625 C-4.33160156 2.29566406 -3.60070313 2.02882812 -2.84765625 1.75390625 C-1.01694322 1.14613052 -1.01694322 1.14613052 0 0 Z " fill="#9B946F" transform="translate(53,199)"/>
<path d="M0 0 C0 3.57575896 -1.08840607 5.05295935 -3 8 C-3.99 7.34 -4.98 6.68 -6 6 C-4 4 -2 2 0 0 Z " fill="#9E9569" transform="translate(40,150)"/>
<path d="M0 0 C0.6875 1.6875 0.6875 1.6875 1 4 C-0.3125 6.75 -0.3125 6.75 -2 9 C-2.66 9 -3.32 9 -4 9 C-2.80100302 5.9168649 -1.52299523 2.93720508 0 0 Z " fill="#A0946A" transform="translate(53,103)"/>
</svg>
